<?xml version="1.0" encoding="utf-8" standalone="no"?>
<!DOCTYPE svg PUBLIC "-//W3C//DTD SVG 1.1//EN"
  "http://www.w3.org/Graphics/SVG/1.1/DTD/svg11.dtd">
<svg xmlns:xlink="http://www.w3.org/1999/xlink" width="334.8pt" height="665.28pt" viewBox="0 0 334.8 665.28" xmlns="http://www.w3.org/2000/svg" version="1.1">
 <metadata>
  <rdf:RDF xmlns:dc="http://purl.org/dc/elements/1.1/" xmlns:cc="http://creativecommons.org/ns#" xmlns:rdf="http://www.w3.org/1999/02/22-rdf-syntax-ns#">
   <cc:Work>
    <dc:type rdf:resource="http://purl.org/dc/dcmitype/StillImage"/>
    <dc:date>2025-03-16T15:56:17.335465</dc:date>
    <dc:format>image/svg+xml</dc:format>
    <dc:creator>
     <cc:Agent>
      <dc:title>Matplotlib v3.6.3, https://matplotlib.org/</dc:title>
     </cc:Agent>
    </dc:creator>
   </cc:Work>
  </rdf:RDF>
 </metadata>
 <defs>
  <style type="text/css">*{stroke-linejoin: round; stroke-linecap: butt}</style>
 </defs>
 <g id="figure_1">
  <g id="patch_1">
   <path d="M 0 665.28 
L 334.8 665.28 
L 334.8 0 
L 0 0 
z
" style="fill: #0a1f33"/>
  </g>
  <g id="axes_1">
   <g id="line2d_1">
    <path d="M 26.924536 635.04 
L 31.318466 596.25523 
L 33.429504 575.650822 
L 35.069871 557.470461 
L 36.279475 541.714148 
L 37.260969 525.957836 
L 37.943701 511.413547 
L 38.39742 496.869259 
L 38.612698 482.32497 
L 38.59666 468.992705 
L 38.346729 454.448417 
L 37.85941 439.904128 
L 37.14483 425.35984 
L 36.21784 410.815551 
L 34.996348 395.059238 
L 33.461742 378.090902 
L 31.48439 358.698517 
L 28.646182 333.246012 
L 21.921674 273.856834 
L 19.990406 254.464449 
L 18.50821 237.496112 
L 17.344141 221.7398 
L 16.476406 207.195511 
L 15.825815 192.651222 
L 15.405891 178.106934 
L 15.225359 163.562645 
L 15.273466 150.230381 
L 15.557943 135.686092 
L 16.078653 121.141804 
L 16.824773 106.597515 
L 17.869349 90.841202 
L 19.134726 75.08489 
L 20.828597 56.904529 
L 22.984156 36.30012 
L 23.653597 30.24 
L 23.653597 30.24 
" clip-path="url(#p1cf620ad4f)" style="fill: none; stroke: #13344d; stroke-opacity: 0.4; stroke-width: 1.5; stroke-linecap: square"/>
   </g>
   <g id="line2d_2">
    <path d="M 85.456337 635.04 
L 92.657099 619.283687 
L 96.287814 610.799519 
L 99.159811 603.527375 
L 101.337949 597.467255 
L 103.286751 591.407134 
L 104.978075 585.347014 
L 106.129203 580.498918 
L 107.089194 575.650822 
L 107.84917 570.802725 
L 108.402106 565.954629 
L 108.742889 561.106533 
L 108.868368 556.258437 
L 108.777383 551.410341 
L 108.470776 546.562244 
L 107.95138 541.714148 
L 107.223999 536.866052 
L 106.295358 532.017956 
L 105.174042 527.16986 
L 103.517406 521.109739 
L 101.599961 515.049619 
L 99.449396 508.989499 
L 96.604936 501.717355 
L 92.997984 493.233186 
L 88.062206 482.32497 
L 77.529832 459.296513 
L 73.950888 450.812345 
L 71.138502 443.5402 
L 69.019855 437.48008 
L 67.138556 431.41996 
L 65.521772 425.35984 
L 64.434623 420.511743 
L 63.541837 415.663647 
L 62.851669 410.815551 
L 62.370501 405.967455 
L 62.10278 401.119359 
L 62.050983 396.271263 
L 62.215588 391.423166 
L 62.595073 386.57507 
L 63.185929 381.726974 
L 63.982695 376.878878 
L 64.978002 372.030782 
L 66.162649 367.182685 
L 67.892871 361.122565 
L 69.876716 355.062445 
L 72.085537 349.002325 
L 74.987977 341.73018 
L 78.644636 333.246012 
L 83.613872 322.337796 
L 93.043977 301.733387 
L 96.647648 293.249218 
L 99.48833 285.977074 
L 101.635124 279.916954 
L 103.548291 273.856834 
L 105.200204 267.796713 
L 106.317465 262.948617 
L 107.241848 258.100521 
L 107.964805 253.252425 
L 108.479652 248.404329 
L 108.78163 243.556232 
L 108.867945 238.708136 
L 108.7378 233.86004 
L 108.392399 229.011944 
L 107.834934 224.163848 
L 107.070561 219.315752 
L 106.106345 214.467655 
L 104.951203 209.619559 
L 103.255216 203.559439 
L 101.302207 197.499319 
L 99.120377 191.439198 
L 96.244706 184.167054 
L 92.61084 175.682886 
L 87.656611 164.774669 
L 77.676113 142.958236 
L 74.086375 134.474068 
L 71.261674 127.201924 
L 69.130796 121.141804 
L 67.235664 115.081683 
L 65.603646 109.021563 
L 64.503446 104.173467 
L 63.596973 99.325371 
L 62.892609 94.477275 
L 62.396865 89.629178 
L 62.114326 84.781082 
L 62.047603 79.932986 
L 62.197313 75.08489 
L 62.562073 70.236794 
L 63.138509 65.388697 
L 63.921293 60.540601 
L 64.903186 55.692505 
L 66.075111 50.844409 
L 67.790581 44.784289 
L 69.761152 38.724168 
L 71.958366 32.664048 
L 72.893705 30.24 
L 72.893705 30.24 
" clip-path="url(#p1cf620ad4f)" style="fill: none; stroke: #13344d; stroke-opacity: 0.4; stroke-width: 1.5; stroke-linecap: square"/>
   </g>
   <g id="line2d_3">
    <path d="M 143.988137 635.04 
L 153.982624 625.343808 
L 158.719676 620.495711 
L 163.150562 615.647615 
L 166.217113 612.011543 
L 169.0236 608.375471 
L 171.537187 604.739399 
L 173.728467 601.103327 
L 175.571805 597.467255 
L 176.596569 595.043206 
L 177.451687 592.619158 
L 178.132709 590.19511 
L 178.636093 587.771062 
L 178.95922 585.347014 
L 179.100407 582.922966 
L 179.058922 580.498918 
L 178.83498 578.07487 
L 178.429745 575.650822 
L 177.845327 573.226774 
L 177.084765 570.802725 
L 176.152017 568.378677 
L 175.051934 565.954629 
L 173.10081 562.318557 
L 170.809086 558.682485 
L 168.203574 555.046413 
L 165.314756 551.410341 
L 162.17643 547.774269 
L 157.667699 542.926172 
L 151.643557 536.866052 
L 141.572863 527.16986 
L 132.896415 518.685691 
L 128.220426 513.837595 
L 123.87214 508.989499 
L 120.880653 505.353427 
L 118.159509 501.717355 
L 115.740543 498.081283 
L 113.652057 494.44521 
L 111.918485 490.809138 
L 110.970137 488.38509 
L 110.193567 485.961042 
L 109.592815 483.536994 
L 109.171006 481.112946 
L 108.930335 478.688898 
L 108.872053 476.26485 
L 108.996464 473.840802 
L 109.30292 471.416754 
L 109.789828 468.992705 
L 110.454654 466.568657 
L 111.29394 464.144609 
L 112.303318 461.720561 
L 114.124587 458.084489 
L 116.295241 454.448417 
L 118.789884 450.812345 
L 121.579331 447.176273 
L 124.630947 443.5402 
L 129.04549 438.692104 
L 133.770587 433.844008 
L 141.22444 426.571864 
L 153.75912 414.451623 
L 158.50792 409.603527 
L 162.954953 404.755431 
L 166.036305 401.119359 
L 168.859707 397.483287 
L 171.392128 393.847214 
L 173.603939 390.211142 
L 175.469264 386.57507 
L 176.509369 384.151022 
L 177.380282 381.726974 
L 178.077471 379.302926 
L 178.597308 376.878878 
L 178.93709 374.45483 
L 179.095048 372.030782 
L 179.070362 369.606733 
L 178.863158 367.182685 
L 178.474516 364.758637 
L 177.906457 362.334589 
L 177.161937 359.910541 
L 176.244829 357.486493 
L 175.159903 355.062445 
L 173.230438 351.426373 
L 170.958856 347.790301 
L 168.371733 344.154228 
L 165.499337 340.518156 
L 162.375275 336.882084 
L 157.881918 332.033988 
L 151.870703 325.973868 
L 141.805279 316.277675 
L 133.117652 307.793507 
L 128.428893 302.945411 
L 124.063502 298.097315 
L 121.056555 294.461242 
L 118.317893 290.82517 
L 115.879557 287.189098 
L 113.770073 283.553026 
L 112.014122 279.916954 
L 111.050217 277.492906 
L 110.257673 275.068858 
L 109.640614 272.64481 
L 109.202249 270.220762 
L 108.944859 267.796713 
L 108.869783 265.372665 
L 108.977411 262.948617 
L 109.267185 260.524569 
L 109.737596 258.100521 
L 110.386196 255.676473 
L 111.209612 253.252425 
L 112.20356 250.828377 
L 114.00268 247.192305 
L 116.152612 243.556232 
L 118.628201 239.92016 
L 121.400486 236.284088 
L 124.437033 232.648016 
L 128.835038 227.79992 
L 133.547972 222.951824 
L 140.992308 215.679679 
L 154.747824 202.347415 
L 159.442892 197.499319 
L 163.816762 192.651222 
L 166.83139 189.01515 
L 169.578766 185.379078 
L 172.026748 181.743006 
L 174.146695 178.106934 
L 175.913807 174.470862 
L 176.885474 172.046814 
L 177.685992 169.622766 
L 178.311195 167.198717 
L 178.757831 164.774669 
L 179.023576 162.350621 
L 179.107048 159.926573 
L 179.007812 157.502525 
L 178.726385 155.078477 
L 178.264231 152.654429 
L 177.623754 150.230381 
L 176.808286 147.806333 
L 175.82207 145.382285 
L 174.034054 141.746212 
L 171.894519 138.11014 
L 169.428497 134.474068 
L 166.664839 130.837996 
L 163.635877 127.201924 
L 159.246213 122.353828 
L 154.539439 117.505731 
L 147.099984 110.233587 
L 133.339368 96.901323 
L 128.638043 92.053226 
L 124.255741 87.20513 
L 121.233466 83.569058 
L 118.477406 79.932986 
L 116.019806 76.296914 
L 113.889418 72.660842 
L 112.111165 69.02477 
L 111.131746 66.600721 
L 110.323263 64.176673 
L 109.689924 61.752625 
L 109.235022 59.328577 
L 108.960924 56.904529 
L 108.869058 54.480481 
L 108.959899 52.056433 
L 109.232977 49.632385 
L 109.686869 47.208337 
L 110.319216 44.784289 
L 111.126726 42.36024 
L 112.1052 39.936192 
L 113.882092 36.30012 
L 116.011207 32.664048 
L 117.614156 30.24 
L 117.614156 30.24 
" clip-path="url(#p1cf620ad4f)" style="fill: none; stroke: #13344d; stroke-opacity: 0.4; stroke-width: 1.5; stroke-linecap: square"/>
   </g>
   <g id="line2d_4">
    <path d="M 202.519938 635.04 
L 215.84592 627.767856 
L 222.16199 624.131784 
L 228.069838 620.495711 
L 233.446679 616.859639 
L 236.680526 614.435591 
L 239.59853 612.011543 
L 242.173712 609.587495 
L 244.38226 607.163447 
L 246.203757 604.739399 
L 247.621359 602.315351 
L 248.621961 599.891303 
L 249.196311 597.467255 
L 249.339099 595.043206 
L 249.049004 592.619158 
L 248.328708 590.19511 
L 247.184872 587.771062 
L 245.628071 585.347014 
L 243.672699 582.922966 
L 241.336835 580.498918 
L 238.642077 578.07487 
L 235.613338 575.650822 
L 232.278623 573.226774 
L 226.770995 569.590701 
L 220.759354 565.954629 
L 212.176948 561.106533 
L 183.532229 545.35022 
L 177.574978 541.714148 
L 172.13616 538.078076 
L 168.854637 535.654028 
L 165.884377 533.22998 
L 163.252844 530.805932 
L 160.984368 528.381884 
L 159.099924 525.957836 
L 157.616934 523.533788 
L 156.54911 521.109739 
L 155.906325 518.685691 
L 155.694523 516.261643 
L 155.915661 513.837595 
L 156.567694 511.413547 
L 157.644595 508.989499 
L 159.136406 506.565451 
L 161.029335 504.141403 
L 163.305879 501.717355 
L 165.94499 499.293307 
L 168.922267 496.869259 
L 172.210183 494.44521 
L 177.657289 490.809138 
L 183.621118 487.173066 
L 192.161224 482.32497 
L 207.82826 473.840802 
L 218.756016 467.780681 
L 224.90256 464.144609 
L 230.583924 460.508537 
L 234.054284 458.084489 
L 237.233082 455.660441 
L 240.090928 453.236393 
L 242.601398 450.812345 
L 244.741282 448.388297 
L 246.490794 445.964248 
L 247.833758 443.5402 
L 248.757757 441.116152 
L 249.254249 438.692104 
L 249.318643 436.268056 
L 248.950344 433.844008 
L 248.152756 431.41996 
L 246.933255 428.995912 
L 245.303115 426.571864 
L 243.277408 424.147816 
L 240.874865 421.723768 
L 238.117697 419.299719 
L 235.031399 416.875671 
L 231.644504 414.451623 
L 226.069736 410.815551 
L 220.005529 407.179479 
L 211.377548 402.331383 
L 184.854165 387.787094 
L 178.802322 384.151022 
L 173.243405 380.51495 
L 169.868857 378.090902 
L 166.796195 375.666854 
L 164.053829 373.242806 
L 161.667114 370.818758 
L 159.658119 368.394709 
L 158.045417 365.970661 
L 156.843919 363.546613 
L 156.064735 361.122565 
L 155.715068 358.698517 
L 155.798152 356.274469 
L 156.313218 353.850421 
L 157.255504 351.426373 
L 158.616297 349.002325 
L 160.383017 346.578277 
L 162.539329 344.154228 
L 165.065294 341.73018 
L 167.93756 339.306132 
L 171.129568 336.882084 
L 174.611807 334.458036 
L 180.308258 330.821964 
L 186.466336 327.185892 
L 195.172934 322.337796 
L 219.51843 309.005531 
L 225.615438 305.369459 
L 231.232449 301.733387 
L 234.652325 299.309339 
L 237.775109 296.885291 
L 240.57193 294.461242 
L 243.016928 292.037194 
L 245.087498 289.613146 
L 246.764494 287.189098 
L 248.032412 284.76505 
L 248.879529 282.341002 
L 249.298013 279.916954 
L 249.283994 277.492906 
L 248.837602 275.068858 
L 247.962964 272.64481 
L 246.668167 270.220762 
L 244.965182 267.796713 
L 242.869755 265.372665 
L 240.401261 262.948617 
L 237.582521 260.524569 
L 234.439599 258.100521 
L 231.001552 255.676473 
L 225.361334 252.040401 
L 219.246401 248.404329 
L 210.575462 243.556232 
L 186.192728 230.223968 
L 180.05199 226.587896 
L 174.378206 222.951824 
L 170.913808 220.527776 
L 167.741636 218.103727 
L 164.891018 215.679679 
L 162.388312 213.255631 
L 160.256656 210.831583 
L 158.51576 208.407535 
L 157.181719 205.983487 
L 156.266869 203.559439 
L 155.779667 201.135391 
L 155.724618 198.711343 
L 156.102231 196.287295 
L 156.909015 193.863246 
L 158.137511 191.439198 
L 159.77636 189.01515 
L 161.810409 186.591102 
L 164.220851 184.167054 
L 166.985401 181.743006 
L 170.078498 179.318958 
L 173.471544 176.89491 
L 179.054202 173.258838 
L 185.124551 169.622766 
L 193.75779 164.774669 
L 220.275689 150.230381 
L 226.32131 146.594309 
L 231.872265 142.958236 
L 235.240619 140.534188 
L 238.306443 138.11014 
L 241.041391 135.686092 
L 243.420175 133.262044 
L 245.420802 130.837996 
L 247.024775 128.413948 
L 248.217262 125.9899 
L 248.98724 123.565852 
L 249.327588 121.141804 
L 249.23516 118.717756 
L 248.710811 116.293707 
L 247.759388 113.869659 
L 246.389688 111.445611 
L 244.614375 109.021563 
L 242.449864 106.597515 
L 239.916167 104.173467 
L 237.03671 101.749419 
L 233.838117 99.325371 
L 230.349961 96.901323 
L 224.646004 93.265251 
L 218.482199 89.629178 
L 209.770932 84.781082 
L 185.430916 71.448818 
L 179.339936 67.812745 
L 173.730709 64.176673 
L 170.31692 61.752625 
L 167.200875 59.328577 
L 164.411384 56.904529 
L 161.974239 54.480481 
L 159.911974 52.056433 
L 158.243654 49.632385 
L 156.984707 47.208337 
L 156.146771 44.784289 
L 155.737594 42.36024 
L 155.760959 39.936192 
L 156.21665 37.512144 
L 157.100454 35.088096 
L 158.4042 32.664048 
L 160.115832 30.24 
L 160.115832 30.24 
" clip-path="url(#p1cf620ad4f)" style="fill: none; stroke: #13344d; stroke-opacity: 0.4; stroke-width: 1.5; stroke-linecap: square"/>
   </g>
   <g id="line2d_5">
    <path d="M 261.051739 635.04 
L 278.382684 628.97988 
L 288.130434 625.343808 
L 294.159342 622.91976 
L 299.710165 620.495711 
L 304.702745 618.071663 
L 309.06499 615.647615 
L 312.733906 613.223567 
L 314.291396 612.011543 
L 315.656512 610.799519 
L 316.824322 609.587495 
L 317.790606 608.375471 
L 318.551872 607.163447 
L 319.10537 605.951423 
L 319.449099 604.739399 
L 319.581818 603.527375 
L 319.503047 602.315351 
L 319.213071 601.103327 
L 318.712937 599.891303 
L 318.004453 598.679279 
L 317.090179 597.467255 
L 315.973417 596.25523 
L 314.658205 595.043206 
L 313.149293 593.831182 
L 309.572861 591.407134 
L 305.295766 588.983086 
L 300.379771 586.559038 
L 294.895865 584.13499 
L 288.923238 581.710942 
L 279.238235 578.07487 
L 265.464381 573.226774 
L 244.580424 565.954629 
L 234.772221 562.318557 
L 228.68845 559.894509 
L 223.072017 557.470461 
L 218.004025 555.046413 
L 213.557657 552.622365 
L 209.797121 550.198317 
L 208.191419 548.986293 
L 206.776721 547.774269 
L 205.558137 546.562244 
L 204.540071 545.35022 
L 203.726202 544.138196 
L 203.119471 542.926172 
L 202.722069 541.714148 
L 202.535433 540.502124 
L 202.560237 539.2901 
L 202.796392 538.078076 
L 203.243044 536.866052 
L 203.898579 535.654028 
L 204.760629 534.442004 
L 205.826079 533.22998 
L 207.091079 532.017956 
L 208.551058 530.805932 
L 212.034165 528.381884 
L 216.225104 525.957836 
L 221.063355 523.533788 
L 226.479054 521.109739 
L 232.393994 518.685691 
L 242.013971 515.049619 
L 255.74432 510.201523 
L 280.020839 501.717355 
L 289.646159 498.081283 
L 295.565816 495.657234 
L 300.987077 493.233186 
L 305.831657 490.809138 
L 310.029599 488.38509 
L 313.520283 485.961042 
L 314.984231 484.749018 
L 316.253302 483.536994 
L 317.32291 482.32497 
L 318.18919 481.112946 
L 318.849013 479.900922 
L 319.299993 478.688898 
L 319.540502 477.476874 
L 319.569671 476.26485 
L 319.387393 475.052826 
L 318.994327 473.840802 
L 318.391895 472.628778 
L 317.582272 471.416754 
L 316.568385 470.204729 
L 315.353896 468.992705 
L 313.943194 467.780681 
L 312.341377 466.568657 
L 308.588216 464.144609 
L 304.148612 461.720561 
L 299.086673 459.296513 
L 293.475496 456.872465 
L 287.396109 454.448417 
L 277.592708 450.812345 
L 263.744448 445.964248 
L 242.934264 438.692104 
L 233.244102 435.056032 
L 227.266872 432.631984 
L 221.777507 430.207936 
L 216.855277 427.783888 
L 212.57126 425.35984 
L 208.987318 422.935792 
L 207.474465 421.723768 
L 206.155205 420.511743 
L 205.034307 419.299719 
L 204.115819 418.087695 
L 203.40306 416.875671 
L 202.898607 415.663647 
L 202.604282 414.451623 
L 202.521148 413.239599 
L 202.649506 412.027575 
L 202.988892 410.815551 
L 203.53808 409.603527 
L 204.295084 408.391503 
L 205.257171 407.179479 
L 206.420864 405.967455 
L 207.781957 404.755431 
L 209.335532 403.543407 
L 212.997002 401.119359 
L 217.352399 398.695311 
L 222.338831 396.271263 
L 227.884291 393.847214 
L 233.908701 391.423166 
L 243.651463 387.787094 
L 257.462446 382.938998 
L 278.313326 375.666854 
L 288.066049 372.030782 
L 294.099447 369.606733 
L 299.655623 367.182685 
L 304.654345 364.758637 
L 309.02343 362.334589 
L 312.699786 359.910541 
L 314.261188 358.698517 
L 315.630326 357.486493 
L 316.802251 356.274469 
L 317.772731 355.062445 
L 318.538257 353.850421 
L 319.096064 352.638397 
L 319.444136 351.426373 
L 319.581216 350.214349 
L 319.506808 349.002325 
L 319.221182 347.790301 
L 318.725368 346.578277 
L 318.021159 345.366253 
L 317.1111 344.154228 
L 315.998478 342.942204 
L 314.687314 341.73018 
L 313.182345 340.518156 
L 309.613428 338.094108 
L 305.343262 335.67006 
L 300.433511 333.246012 
L 294.955072 330.821964 
L 288.987058 328.397916 
L 279.307228 324.761844 
L 265.536771 319.913747 
L 244.650103 312.641603 
L 234.837112 309.005531 
L 228.748968 306.581483 
L 223.127287 304.157435 
L 218.053249 301.733387 
L 213.600125 299.309339 
L 209.83222 296.885291 
L 208.222636 295.673267 
L 206.803943 294.461242 
L 205.581266 293.249218 
L 204.559024 292.037194 
L 203.740909 290.82517 
L 203.12988 289.613146 
L 202.728142 288.401122 
L 202.537148 287.189098 
L 202.557589 285.977074 
L 202.789389 284.76505 
L 203.231712 283.553026 
L 203.882959 282.341002 
L 204.740777 281.128978 
L 205.802067 279.916954 
L 207.062994 278.70493 
L 208.519001 277.492906 
L 211.994526 275.068858 
L 216.178455 272.64481 
L 221.01037 270.220762 
L 226.420498 267.796713 
L 232.330713 265.372665 
L 241.945333 261.736593 
L 255.672023 256.888497 
L 279.952143 248.404329 
L 289.58279 244.768257 
L 295.507154 242.344208 
L 300.933969 239.92016 
L 305.78487 237.496112 
L 309.989809 235.072064 
L 313.488064 232.648016 
L 314.95598 231.435992 
L 316.22912 230.223968 
L 317.302885 229.011944 
L 318.173394 227.79992 
L 318.837503 226.587896 
L 319.292811 225.375872 
L 319.537674 224.163848 
L 319.571206 222.951824 
L 319.393286 221.7398 
L 319.004558 220.527776 
L 318.406426 219.315752 
L 317.601051 218.103727 
L 316.591343 216.891703 
L 315.380951 215.679679 
L 313.974248 214.467655 
L 312.376317 213.255631 
L 308.630538 210.831583 
L 304.197704 208.407535 
L 299.141827 205.983487 
L 293.535915 203.559439 
L 287.460919 201.135391 
L 277.662336 197.499319 
L 263.816969 192.651222 
L 243.003313 185.379078 
L 233.308007 181.743006 
L 227.326183 179.318958 
L 221.831368 176.89491 
L 216.90291 174.470862 
L 212.611976 172.046814 
L 209.020531 169.622766 
L 207.503739 168.410741 
L 206.180434 167.198717 
L 205.0554 165.986693 
L 204.1327 164.774669 
L 203.415668 163.562645 
L 202.906897 162.350621 
L 202.608223 161.138597 
L 202.520726 159.926573 
L 202.644723 158.714549 
L 202.979765 157.502525 
L 203.524642 156.290501 
L 204.277384 155.078477 
L 205.235272 153.866453 
L 206.394845 152.654429 
L 207.751913 151.442405 
L 209.301572 150.230381 
L 212.95559 147.806333 
L 217.304133 145.382285 
L 222.284408 142.958236 
L 227.824498 140.534188 
L 233.8444 138.11014 
L 243.582159 134.474068 
L 257.389986 129.625972 
L 278.243941 122.353828 
L 288.001623 118.717756 
L 294.0395 116.293707 
L 299.601022 113.869659 
L 304.605878 111.445611 
L 308.981796 109.021563 
L 312.665587 106.597515 
L 314.230899 105.385491 
L 315.604055 104.173467 
L 316.780095 102.961443 
L 317.754768 101.749419 
L 318.524554 100.537395 
L 319.086669 99.325371 
L 319.439084 98.113347 
L 319.580524 96.901323 
L 319.51048 95.689299 
L 319.229203 94.477275 
L 318.73771 93.265251 
L 318.037778 92.053226 
L 317.131934 90.841202 
L 316.023453 89.629178 
L 314.71634 88.417154 
L 313.215317 87.20513 
L 309.653921 84.781082 
L 305.390691 82.357034 
L 300.48719 79.932986 
L 295.014227 77.508938 
L 289.050834 75.08489 
L 279.376192 71.448818 
L 265.609154 66.600721 
L 244.719807 59.328577 
L 234.902044 55.692505 
L 228.809535 53.268457 
L 223.182616 50.844409 
L 218.10254 48.420361 
L 213.642667 45.996313 
L 209.867397 43.572265 
L 208.253934 42.36024 
L 206.831248 41.148216 
L 205.60448 39.936192 
L 204.578063 38.724168 
L 203.755705 37.512144 
L 203.140378 36.30012 
L 202.734305 35.088096 
L 202.538954 33.876072 
L 202.55503 32.664048 
L 202.782476 31.452024 
L 203.220469 30.24 
L 203.220469 30.24 
" clip-path="url(#p1cf620ad4f)" style="fill: none; stroke: #13344d; stroke-opacity: 0.4; stroke-width: 1.5; stroke-linecap: square"/>
   </g>
   <g id="line2d_6">
    <path d="M 103.015877 635.04 
L 102.913159 624.131784 
L 102.606207 613.223567 
L 102.030064 601.103327 
L 101.21459 588.983086 
L 100.171561 576.862846 
L 98.916039 564.742605 
L 97.311258 551.410341 
L 95.325475 536.866052 
L 92.944149 521.109739 
L 89.769171 501.717355 
L 84.535758 471.416754 
L 79.583453 442.328176 
L 76.710206 424.147816 
L 74.446444 408.391503 
L 72.593947 393.847214 
L 71.129815 380.51495 
L 70.015365 368.394709 
L 69.123887 356.274469 
L 68.468257 344.154228 
L 68.087735 333.246012 
L 67.910416 322.337796 
L 67.938372 311.429579 
L 68.171278 300.521363 
L 68.606408 289.613146 
L 69.320793 277.492906 
L 70.268181 265.372665 
L 71.434891 253.252425 
L 72.951393 239.92016 
L 74.686337 226.587896 
L 76.792432 212.043607 
L 79.473831 195.075271 
L 83.158665 173.258838 
L 92.06412 121.141804 
L 94.696442 104.173467 
L 96.747439 89.629178 
L 98.422331 76.296914 
L 99.870727 62.964649 
L 100.969533 50.844409 
L 101.844323 38.724168 
L 102.316485 30.24 
L 102.316485 30.24 
" clip-path="url(#p1cf620ad4f)" style="fill: none; stroke: #13344d; stroke-opacity: 0.4; stroke-width: 1.5; stroke-linecap: square"/>
   </g>
   <g id="line2d_7">
    <path d="M 179.107218 635.04 
L 179.015864 631.403928 
L 178.742276 627.767856 
L 178.287879 624.131784 
L 177.655036 620.495711 
L 176.847039 616.859639 
L 175.504644 612.011543 
L 173.870852 607.163447 
L 171.960769 602.315351 
L 169.792055 597.467255 
L 167.384763 592.619158 
L 164.761149 587.771062 
L 161.214557 581.710942 
L 157.419209 575.650822 
L 152.613807 568.378677 
L 145.101864 557.470461 
L 134.25217 541.714148 
L 129.501551 534.442004 
L 125.768675 528.381884 
L 122.298894 522.321764 
L 119.746315 517.473667 
L 117.417873 512.625571 
L 115.335095 507.777475 
L 113.517238 502.929379 
L 111.981111 498.081283 
L 110.740915 493.233186 
L 110.011978 489.597114 
L 109.459802 485.961042 
L 109.087263 482.32497 
L 108.896296 478.688898 
L 108.887896 475.052826 
L 109.062106 471.416754 
L 109.418021 467.780681 
L 109.953788 464.144609 
L 110.66662 460.508537 
L 111.885957 455.660441 
L 113.402107 450.812345 
L 115.201049 445.964248 
L 117.266153 441.116152 
L 119.578323 436.268056 
L 122.116184 431.41996 
L 125.569956 425.35984 
L 129.289694 419.299719 
L 134.028598 412.027575 
L 140.651439 402.331383 
L 154.823957 381.726974 
L 159.514697 374.45483 
L 163.181097 368.394709 
L 166.570343 362.334589 
L 169.049148 357.486493 
L 171.296242 352.638397 
L 173.290851 347.790301 
L 175.014531 342.942204 
L 176.451345 338.094108 
L 177.58801 333.246012 
L 178.237107 329.60994 
L 178.708021 325.973868 
L 178.998304 322.337796 
L 179.106445 318.701723 
L 179.031882 315.065651 
L 178.775002 311.429579 
L 178.337142 307.793507 
L 177.72058 304.157435 
L 176.928524 300.521363 
L 175.606708 295.673267 
L 173.992553 290.82517 
L 172.100981 285.977074 
L 169.949482 281.128978 
L 167.557948 276.280882 
L 164.948492 271.432786 
L 161.417148 265.372665 
L 157.634122 259.312545 
L 152.839398 252.040401 
L 145.334637 241.132184 
L 134.47617 225.375872 
L 129.714045 218.103727 
L 125.968195 212.043607 
L 122.482559 205.983487 
L 119.915374 201.135391 
L 117.570762 196.287295 
L 115.4704 191.439198 
L 113.63371 186.591102 
L 112.077671 181.743006 
L 110.816672 176.89491 
L 110.071662 173.258838 
L 109.503103 169.622766 
L 109.113954 165.986693 
L 108.906239 162.350621 
L 108.88104 158.714549 
L 109.038486 155.078477 
L 109.37776 151.442405 
L 109.897095 147.806333 
L 110.593791 144.170261 
L 111.464222 140.534188 
L 112.887098 135.686092 
L 114.597529 130.837996 
L 116.5797 125.9899 
L 118.815286 121.141804 
L 121.283616 116.293707 
L 124.66137 110.233587 
L 128.318209 104.173467 
L 133.000219 96.901323 
L 138.744074 88.417154 
L 156.199377 62.964649 
L 160.80711 55.692505 
L 164.383729 49.632385 
L 167.665828 43.572265 
L 170.047444 38.724168 
L 172.188119 33.876072 
L 173.623512 30.24 
L 173.623512 30.24 
" clip-path="url(#p1cf620ad4f)" style="fill: none; stroke: #13344d; stroke-opacity: 0.4; stroke-width: 1.5; stroke-linecap: square"/>
   </g>
   <g id="line2d_8">
    <path d="M 255.198559 635.04 
L 255.061528 632.615952 
L 254.651146 630.191904 
L 253.969551 627.767856 
L 253.020286 625.343808 
L 251.808291 622.91976 
L 250.339872 620.495711 
L 248.622667 618.071663 
L 246.665611 615.647615 
L 244.478885 613.223567 
L 242.073867 610.799519 
L 238.084704 607.163447 
L 233.679455 603.527375 
L 228.90966 599.891303 
L 222.079845 595.043206 
L 214.843514 590.19511 
L 201.657205 581.710942 
L 188.525611 573.226774 
L 181.368626 568.378677 
L 174.65123 563.530581 
L 169.986073 559.894509 
L 165.701543 556.258437 
L 161.847764 552.622365 
L 159.540374 550.198317 
L 157.456587 547.774269 
L 155.607244 545.35022 
L 154.001966 542.926172 
L 152.649105 540.502124 
L 151.555698 538.078076 
L 150.727436 535.654028 
L 150.168626 533.22998 
L 149.882176 530.805932 
L 149.869576 528.381884 
L 150.130892 525.957836 
L 150.664764 523.533788 
L 151.468414 521.109739 
L 152.537662 518.685691 
L 153.866945 516.261643 
L 155.449348 513.837595 
L 157.276637 511.413547 
L 159.339306 508.989499 
L 161.626624 506.565451 
L 165.452483 502.929379 
L 169.712008 499.293307 
L 174.355364 495.657234 
L 179.328229 492.021162 
L 186.370255 487.173066 
L 195.626922 481.112946 
L 219.973865 465.356633 
L 226.939221 460.508537 
L 231.837734 456.872465 
L 236.393246 453.236393 
L 240.552463 449.600321 
L 244.266722 445.964248 
L 246.474008 443.5402 
L 248.452621 441.116152 
L 250.192267 438.692104 
L 251.683896 436.268056 
L 252.919748 433.844008 
L 253.893392 431.41996 
L 254.599764 428.995912 
L 255.035189 426.571864 
L 255.1974 424.147816 
L 255.085555 421.723768 
L 254.700236 419.299719 
L 254.043446 416.875671 
L 253.118603 414.451623 
L 251.930518 412.027575 
L 250.485373 409.603527 
L 248.790685 407.179479 
L 246.855272 404.755431 
L 244.689203 402.331383 
L 242.303746 399.907335 
L 238.341654 396.271263 
L 233.960471 392.63519 
L 229.211452 388.999118 
L 222.403811 384.151022 
L 215.182921 379.302926 
L 203.906612 372.030782 
L 188.862738 362.334589 
L 181.689064 357.486493 
L 174.948321 352.638397 
L 170.26157 349.002325 
L 165.952222 345.366253 
L 162.070693 341.73018 
L 159.743333 339.306132 
L 157.638519 336.882084 
L 155.767203 334.458036 
L 154.13912 332.033988 
L 152.76274 329.60994 
L 151.645225 327.185892 
L 150.792386 324.761844 
L 150.208663 322.337796 
L 149.897091 319.913747 
L 149.859292 317.489699 
L 150.095462 315.065651 
L 150.604372 312.641603 
L 151.383375 310.217555 
L 152.428419 307.793507 
L 153.734065 305.369459 
L 155.293522 302.945411 
L 157.098677 300.521363 
L 159.140137 298.097315 
L 161.407283 295.673267 
L 165.205053 292.037194 
L 169.439385 288.401122 
L 174.060738 284.76505 
L 179.015046 281.128978 
L 186.038061 276.280882 
L 195.280705 270.220762 
L 219.643842 254.464449 
L 226.629116 249.616353 
L 231.546823 245.980281 
L 236.124934 242.344208 
L 240.309888 238.708136 
L 244.052723 235.072064 
L 246.280472 232.648016 
L 248.280555 230.223968 
L 250.042566 227.79992 
L 251.557339 225.375872 
L 252.816993 222.951824 
L 253.814974 220.527776 
L 254.546091 218.103727 
L 255.00654 215.679679 
L 255.193925 213.255631 
L 255.107271 210.831583 
L 254.74703 208.407535 
L 254.115075 205.983487 
L 253.214694 203.559439 
L 252.050571 201.135391 
L 250.628764 198.711343 
L 248.956668 196.287295 
L 247.042984 193.863246 
L 244.897666 191.439198 
L 242.531876 189.01515 
L 238.597029 185.379078 
L 234.240103 181.743006 
L 229.51207 178.106934 
L 224.468247 174.470862 
L 217.354357 169.622766 
L 208.046421 163.562645 
L 187.371042 150.230381 
L 180.273844 145.382285 
L 175.246624 141.746212 
L 170.538486 138.11014 
L 166.20451 134.474068 
L 162.295402 130.837996 
L 159.948173 128.413948 
L 157.822426 125.9899 
L 155.929219 123.565852 
L 154.278403 121.141804 
L 152.878565 118.717756 
L 151.736988 116.293707 
L 150.859612 113.869659 
L 150.251001 111.445611 
L 149.914321 109.021563 
L 149.851324 106.597515 
L 150.062338 104.173467 
L 150.546264 101.749419 
L 151.300586 99.325371 
L 152.321378 96.901323 
L 153.603331 94.477275 
L 155.139774 92.053226 
L 156.922714 89.629178 
L 158.942876 87.20513 
L 161.18975 84.781082 
L 164.959265 81.14501 
L 169.168217 77.508938 
L 173.767363 73.872866 
L 178.702897 70.236794 
L 185.706591 65.388697 
L 194.934806 59.328577 
L 219.313067 43.572265 
L 226.31795 38.724168 
L 231.254636 35.088096 
L 235.855144 31.452024 
L 237.304512 30.24 
L 237.304512 30.24 
" clip-path="url(#p1cf620ad4f)" style="fill: none; stroke: #13344d; stroke-opacity: 0.4; stroke-width: 1.5; stroke-linecap: square"/>
   </g>
  </g>
 </g>
 <defs>
  <clipPath id="p1cf620ad4f">
   <rect x="0" y="-0" width="334.8" height="665.28"/>
  </clipPath>
 </defs>
</svg>
